# 3ds Max Wavefront OBJ Exporter v0.97b - (c)2007 guruware
# File Created: 06.04.2018 17:37:41

mtllib fossil_fish.mtl

#
# object fossil_fish
#

v  71.0305 54.8542 11.8632
v  53.3133 82.1722 9.9614
v  42.0821 85.5459 9.6106
v  -67.9986 59.7201 15.2041
v  -83.1695 60.3769 11.8632
v  -85.8735 44.2868 11.8632
v  -70.9670 80.5941 11.8632
v  -52.9244 66.9467 15.2041
v  -56.5229 86.6999 11.8632
v  -23.3852 79.5534 11.8632
v  -16.0065 57.5975 12.5404
v  43.3923 55.3784 17.8105
v  68.4734 46.8697 11.8632
v  -7.9407 41.1009 12.0306
v  44.4997 46.1618 19.3624
v  -56.6717 43.1394 15.2041
v  -65.6911 43.4938 15.2041
v  -56.7173 29.7950 11.8632
v  -63.6767 29.3286 11.8632
v  2.7781 33.7773 12.7430
v  43.8952 33.0334 17.8105
v  -2.0938 35.2549 9.7593
v  -6.2892 32.3629 11.6955
v  -58.7966 8.3752 11.8632
v  -73.6006 21.8538 11.8632
v  -80.5672 28.1967 11.8632
v  71.0996 32.8591 11.8632
v  52.2335 6.1734 11.8632
v  43.4164 6.5632 11.5184
v  22.6250 14.4036 11.6943
v  13.7538 18.9386 9.5622
v  11.8554 13.5216 11.7438
v  -23.4706 10.9484 11.8035
v  -55.7793 35.0504 -12.5333
v  -49.1103 35.2913 -12.8142
v  -48.9891 29.8486 -11.6098
v  -53.2326 27.3581 -11.6098
v  -62.9287 35.8424 -11.6098
v  -62.3340 40.2009 -11.6278
v  -63.2704 45.1520 -11.6098
v  -63.0800 51.7056 -12.0678
v  -56.0942 46.2936 -12.4883
v  -66.3709 50.8716 -11.6589
v  -64.9761 33.9822 -11.5610
v  -62.4310 32.1630 -12.1804
v  -59.0387 24.7568 -11.6098
v  -32.4895 28.4393 -11.7879
v  -20.9133 15.4568 -12.0558
v  -67.6057 58.1011 -11.5899
v  -59.5475 57.4855 -11.6098
v  -75.0833 60.2713 -11.2594
v  -77.8448 44.2476 -11.2594
v  -69.7330 75.0639 -12.0729
v  -72.5960 28.2240 -11.2594
v  -66.2949 24.5537 -11.2330
v  -53.0767 15.6487 -9.8249
v  13.3232 20.4698 -8.9772
v  11.2501 15.2648 -14.2867
v  -6.3197 26.3110 -11.7879
v  -20.7969 23.7160 -11.7879
v  -31.5744 30.4585 -14.2162
v  -20.5266 25.6480 -14.8178
v  -31.1541 35.9800 -16.0469
v  -20.1467 30.6384 -17.4128
v  -30.9398 45.8588 -15.1560
v  -20.4908 43.8967 -17.5889
v  -5.1127 33.1264 -17.9936
v  -5.4927 28.1360 -15.7362
v  -49.1297 43.3389 -12.7614
v  -49.0397 49.3796 -11.6098
v  -32.1298 51.7793 -11.7879
v  -21.4708 54.2192 -15.9869
v  -4.4248 41.1163 -19.2362
v  21.0522 33.3508 -19.4918
v  19.5875 24.8112 -15.6489
v  16.1907 39.7759 -19.9909
v  26.3663 30.2606 -17.9360
v  25.5806 37.7631 -19.9771
v  14.9977 52.0866 -18.5517
v  -5.9750 54.9611 -17.4808
v  33.3872 44.3630 -20.1241
v  -6.6542 61.0529 -14.5435
v  37.5777 46.1308 -17.7132
v  35.3666 49.5005 -16.9998
v  37.9108 51.6913 -15.2044
v  28.5198 50.7679 -17.1127
v  23.4047 51.9735 -18.9991
v  14.7139 61.8059 -15.1266
v  13.8016 63.5384 -11.7879
v  -7.4313 63.6861 -11.7879
v  -24.4907 59.1509 -11.7879
v  45.3471 76.0696 -9.8455
v  25.4283 62.3879 -11.7879
v  24.0043 60.8445 -15.1266
v  32.4245 56.2133 -14.9597
v  32.9812 57.4336 -11.7879
v  50.9853 72.9972 -10.0694
v  39.2938 53.0085 -11.7879
v  60.6752 54.4660 -11.2594
v  -22.7298 68.6466 -8.9144
v  50.3253 9.8940 -11.2594
v  60.8057 33.2673 -11.2594
v  58.1488 46.8797 -11.2594
v  43.2868 48.6462 -11.7879
v  42.0381 48.2496 -14.0733
v  34.0093 42.2287 -18.7273
v  36.0480 40.8329 -17.8138
v  38.9395 44.0571 -16.8703
v  42.0390 46.0235 -14.2162
v  43.0986 46.4743 -11.7879
v  44.3986 43.8609 -11.7879
v  44.0362 43.8609 -13.8387
v  41.1851 34.7797 -11.7879
v  40.4488 36.0646 -14.2604
v  38.7195 41.8488 -16.8095
v  38.8619 37.3877 -15.5601
v  35.5153 31.3349 -14.9547
v  35.9831 29.6956 -11.7879
v  41.1879 10.5289 -10.7543
v  27.9955 24.5765 -11.7879
v  27.7962 26.5702 -15.6489
v  22.2288 15.9620 -11.0869
v  18.7605 22.9862 -11.7879
v  33.5579 32.5389 -15.7837
v  -23.6267 6.4752 -6.0939
v  -23.5575 6.9370 -7.0320
v  -23.5575 0.6717 -10.6493
v  -23.6267 0.0902 -9.7803
v  13.5520 0.6717 -10.6493
v  13.6212 0.0902 -9.7803
v  13.5520 6.9370 -7.0320
v  13.6212 6.4753 -6.0939
v  26.2404 14.4999 -0.9179
v  26.2404 3.7111 -0.9179
v  26.2325 3.7111 0.5391
v  26.2325 14.4999 0.5391
v  27.6869 3.7111 0.5482
v  27.6869 14.4999 0.5482
v  27.6970 3.7111 -0.9098
v  27.6970 14.4999 -0.9098
v  37.5895 3.7336 7.6002
v  -45.9302 3.7336 7.6002
v  -45.8214 -0.0702 7.4915
v  37.4808 -0.0702 7.4915
v  37.4808 -0.0702 -8.3239
v  37.5895 3.7336 -8.4326
v  -45.9302 3.7336 -8.4326
v  -45.8214 -0.0702 -8.3239
v  -49.1682 39.7164 -12.8893
v  -55.9016 39.4246 -12.5381
v  -54.0533 52.7692 -11.6098
v  -56.3097 81.9774 -9.5920
v  -35.9951 14.1358 -0.9179
v  -35.9951 3.7111 -0.9179
v  -36.0029 3.7111 0.5391
v  -36.0029 14.1358 0.5391
v  -34.5485 3.7111 0.5482
v  -34.5485 14.1358 0.5482
v  -34.5385 3.7111 -0.9098
v  -34.5385 14.1358 -0.9098
# 160 vertices

vn 0.6429 0.1522 0.7507
vn 0.4813 0.7021 0.5248
vn 0.0685 0.6008 0.7965
vn -0.1119 0.0500 0.9925
vn -0.8211 0.2639 0.5062
vn -0.6169 -0.0535 0.7852
vn -0.3728 0.4700 0.8000
vn -0.0709 0.1478 0.9865
vn 0.0140 0.0900 0.9958
vn -0.0809 0.8602 0.5036
vn 0.1131 0.5463 0.8299
vn 0.0209 0.0215 0.9996
vn 0.0306 0.0411 0.9987
vn 0.0608 0.1941 0.9791
vn 0.9014 -0.0341 0.4317
vn -0.0197 -0.0848 0.9962
vn 0.0734 0.0443 0.9963
vn 0.0388 -0.1661 0.9854
vn -0.0281 -0.1182 0.9926
vn 0.0000 0.0000 1.0000
vn 0.0168 -0.1173 0.9930
vn 0.0055 -0.1174 0.9931
vn -0.3439 -0.3535 0.8699
vn 0.0356 -0.1531 0.9876
vn -0.1213 -0.3187 0.9401
vn 0.1389 0.0570 0.9887
vn -0.2646 -0.7729 0.5768
vn -0.5217 -0.5969 0.6095
vn -0.6915 -0.4600 0.5570
vn -0.1642 -0.0233 0.9862
vn 0.8765 -0.1572 0.4550
vn 0.3531 -0.7506 0.5585
vn -0.1680 -0.8129 0.5577
vn -0.3374 -0.7498 0.5692
vn 0.1715 -0.7687 0.6162
vn 0.5065 -0.5418 0.6707
vn 0.0339 -0.7750 0.6310
vn -0.0481 -0.0458 -0.9978
vn -0.0376 -0.1162 -0.9925
vn 0.0007 -0.0867 -0.9962
vn 0.0201 -0.0386 -0.9991
vn -0.0862 0.0524 -0.9949
vn -0.0797 -0.0075 -0.9968
vn -0.0503 -0.0178 -0.9986
vn -0.0610 0.0096 -0.9981
vn -0.0250 0.0509 -0.9984
vn -0.0769 -0.0184 -0.9969
vn -0.0964 0.0250 -0.9950
vn -0.1181 0.0106 -0.9929
vn -0.0291 -0.1435 -0.9892
vn -0.1015 -0.4219 -0.9009
vn -0.0044 -0.6391 -0.7691
vn -0.0165 0.1005 -0.9948
vn -0.0132 0.0121 -0.9998
vn -0.6022 0.1451 -0.7851
vn -0.7740 -0.0589 -0.6304
vn -0.0300 -0.0083 -0.9995
vn -0.6370 0.5612 -0.5285
vn -0.0260 -0.0190 -0.9995
vn -0.5183 -0.4399 -0.7334
vn -0.3403 -0.5146 -0.7870
vn -0.1699 -0.7059 -0.6877
vn 0.2501 -0.6188 -0.7447
vn 0.5200 -0.4035 -0.7529
vn 0.0051 -0.5267 -0.8500
vn -0.0490 -0.3795 -0.9239
vn -0.2030 -0.5010 -0.8413
vn -0.1176 -0.6872 -0.7169
vn -0.1631 -0.0975 -0.9818
vn -0.1272 -0.2648 -0.9559
vn -0.2177 0.2273 -0.9492
vn -0.1435 0.0524 -0.9883
vn -0.0447 -0.2597 -0.9646
vn -0.0103 -0.6844 -0.7291
vn -0.0669 0.1166 -0.9909
vn 0.0012 0.1258 -0.9921
vn -0.1961 0.2682 -0.9432
vn -0.2266 0.3521 -0.9081
vn -0.0748 -0.0148 -0.9971
vn 0.0117 -0.2609 -0.9653
vn 0.0222 -0.7220 -0.6915
vn -0.0164 0.0106 -0.9998
vn 0.1896 -0.3686 -0.9100
vn 0.0787 -0.0796 -0.9937
vn -0.0275 0.1778 -0.9837
vn -0.0557 0.2858 -0.9567
vn 0.2071 0.0632 -0.9763
vn -0.0741 0.5863 -0.8067
vn 0.4725 0.1989 -0.8586
vn 0.1962 0.4668 -0.8623
vn 0.4880 0.5292 -0.6942
vn 0.1926 0.2927 -0.9366
vn 0.1987 0.2137 -0.9565
vn -0.0457 0.3308 -0.9426
vn 0.0087 0.6722 -0.7403
vn -0.0098 0.6087 -0.7933
vn -0.0514 0.5894 -0.8062
vn 0.1148 0.5465 -0.8296
vn -0.1225 0.2856 -0.9505
vn 0.1469 0.6403 -0.7540
vn 0.1591 0.4759 -0.8650
vn 0.2022 0.6551 -0.7280
vn 0.3938 0.5629 -0.7267
vn 0.3280 0.4709 -0.8190
vn 0.4602 0.4763 -0.7492
vn 0.3271 0.3767 -0.8667
vn 0.6316 0.0841 -0.7707
vn 0.0701 0.6029 -0.7948
vn 0.3302 -0.6513 -0.6832
vn 0.6155 -0.0769 -0.7844
vn 0.4931 -0.0296 -0.8695
vn 0.3868 0.1293 -0.9131
vn 0.7337 0.2816 -0.6184
vn 0.4151 -0.3028 -0.8579
vn 0.3503 -0.1924 -0.9167
vn 0.5161 -0.0095 -0.8565
vn 0.7207 0.2269 -0.6551
vn 0.5871 0.1189 -0.8007
vn 0.4951 0.0482 -0.8675
vn 0.8654 0.1275 -0.4846
vn 0.3980 -0.2640 -0.8786
vn 0.6614 -0.3793 -0.6471
vn 0.4538 -0.1416 -0.8798
vn 0.4208 -0.2690 -0.8663
vn 0.4713 -0.5082 -0.7208
vn 0.3193 -0.4110 -0.8539
vn -0.1593 -0.6968 -0.6993
vn 0.1782 -0.4810 -0.8584
vn 0.3013 -0.6745 -0.6740
vn -0.2830 -0.6754 -0.6810
vn -0.0985 -0.6314 -0.7692
vn 0.3231 -0.2318 -0.9175
vn -0.7225 0.2184 0.6560
vn -0.5592 0.7903 -0.2504
vn -0.5592 -0.1783 -0.8096
vn -0.6023 -0.7835 0.1525
vn 0.5592 -0.1783 -0.8096
vn 0.6023 -0.7835 0.1525
vn 0.5592 0.7903 -0.2504
vn 0.7225 0.2185 0.6560
vn -0.7032 0.0000 -0.7110
vn -0.7112 0.0000 0.7030
vn 0.7024 0.0000 0.7118
vn 0.7115 0.0000 -0.7027
vn 0.5847 0.5624 0.5847
vn -0.5847 0.5623 0.5847
vn -0.5663 -0.5989 0.5663
vn 0.5663 -0.5989 0.5663
vn 0.6997 -0.5177 -0.4923
vn 0.5847 0.5624 -0.5847
vn -0.5847 0.5623 -0.5847
vn -0.6997 -0.5177 -0.4923
vn -0.0966 -0.0002 -0.9953
vn -0.0915 0.0003 -0.9958
vn -0.1371 -0.2169 -0.9665
vn -0.1069 -0.1008 -0.9892
vn 0.0303 0.0364 -0.9989
vn 0.0749 0.1108 -0.9910
vn -0.1845 0.5692 -0.8012
vn -0.0250 0.7301 -0.6829
vn 0.1353 0.0913 -0.9866
vn 0.7025 0.0000 0.7117
# 162 vertex normals

vt 0.1483 0.7037 0.7037
vt 0.2426 0.5437 0.5437
vt 0.3024 0.5239 0.5239
vt 0.8886 0.6752 0.6752
vt 0.9693 0.6713 0.6713
vt 0.9837 0.7656 0.7656
vt 0.9044 0.5529 0.5529
vt 0.8083 0.6329 0.6329
vt 0.8295 0.5176 0.5176
vt 0.6510 0.5590 0.5590
vt 0.6117 0.6876 0.6876
vt 0.2955 0.7006 0.7006
vt 0.1619 0.7504 0.7504
vt 0.5688 0.7842 0.7842
vt 0.2896 0.7546 0.7546
vt 0.8283 0.7723 0.7723
vt 0.8763 0.7702 0.7702
vt 0.8285 0.8505 0.8505
vt 0.8656 0.8532 0.8532
vt 0.5117 0.8271 0.8271
vt 0.2928 0.8315 0.8315
vt 0.5376 0.8185 0.8185
vt 0.5600 0.8354 0.8354
vt 0.8396 0.9759 0.9759
vt 0.9184 0.8970 0.8970
vt 0.9555 0.8598 0.8598
vt 0.1479 0.8325 0.8325
vt 0.2484 0.9888 0.9888
vt 0.2953 0.9865 0.9865
vt 0.4060 0.9406 0.9406
vt 0.4533 0.9140 0.9140
vt 0.4634 0.9458 0.9458
vt 0.6515 0.9608 0.9608
vt 0.8259 0.2011 0.2011
vt 0.7900 0.2027 0.2027
vt 0.7894 0.1710 0.1710
vt 0.8121 0.1573 0.1573
vt 0.8653 0.2057 0.2057
vt 0.8619 0.2306 0.2306
vt 0.8672 0.2589 0.2589
vt 0.8665 0.2968 0.2968
vt 0.8289 0.2655 0.2655
vt 0.8847 0.2916 0.2916
vt 0.8774 0.1940 0.1940
vt 0.8612 0.1845 0.1845
vt 0.8443 0.1401 0.1401
vt 0.7045 0.1615 0.1615
vt 0.6438 0.0959 0.0959
vt 0.8907 0.3340 0.3340
vt 0.8487 0.3308 0.3308
vt 0.9245 0.3445 0.3445
vt 0.9386 0.2538 0.2538
vt 0.8949 0.4248 0.4248
vt 1.0028 0.2521 0.2521
vt 0.9105 0.1654 0.1654
vt 0.8803 0.1424 0.1424
vt 0.8113 0.0938 0.0938
vt 0.6582 0.0123 0.0123
vt 0.4626 0.0149 0.0149
vt 0.8457 0.0296 0.0296
vt 0.9334 0.1080 0.1080
vt 0.9731 0.1517 0.1517
vt 0.4613 0.1188 0.1188
vt 0.4488 0.0488 0.0488
vt 0.4804 0.0938 0.0938
vt 0.5634 0.1465 0.1465
vt 0.6426 0.1328 0.1328
vt 0.6983 0.1764 0.1764
vt 0.6391 0.1511 0.1511
vt 0.6954 0.2082 0.2082
vt 0.6367 0.1800 0.1800
vt 0.6947 0.2636 0.2636
vt 0.6382 0.2520 0.2520
vt 0.5584 0.1948 0.1948
vt 0.5603 0.1672 0.1672
vt 0.7909 0.2500 0.2500
vt 0.7923 0.2850 0.2850
vt 0.7037 0.2992 0.2992
vt 0.6427 0.3088 0.3088
vt 0.5544 0.2369 0.2369
vt 0.4237 0.1963 0.1963
vt 0.4304 0.1479 0.1479
vt 0.4485 0.2293 0.2293
vt 0.3970 0.1760 0.1760
vt 0.4011 0.2162 0.2162
vt 0.4543 0.2956 0.2956
vt 0.5624 0.3126 0.3126
vt 0.3626 0.2518 0.2518
vt 0.5657 0.3484 0.3484
vt 0.3402 0.2607 0.2607
vt 0.3501 0.2800 0.2800
vt 0.3354 0.2923 0.2923
vt 0.3850 0.2889 0.2889
vt 0.4109 0.2931 0.2931
vt 0.4550 0.3500 0.3500
vt 0.4589 0.3681 0.3681
vt 0.5700 0.3673 0.3673
vt 0.6616 0.3412 0.3412
vt 0.2957 0.4322 0.4322
vt 0.3960 0.3608 0.3608
vt 0.4064 0.3445 0.3445
vt 0.3634 0.3181 0.3181
vt 0.3541 0.3322 0.3322
vt 0.2646 0.4153 0.4153
vt 0.3206 0.3055 0.3055
vt 0.2170 0.3124 0.3124
vt 0.2396 0.4832 0.4832
vt 0.3029 0.5216 0.5216
vt 0.6504 0.3922 0.3922
vt 0.6505 0.5085 0.5085
vt 0.1160 0.3200 0.3200
vt 0.1261 0.2683 0.2683
vt 0.1158 0.1823 0.1823
vt 0.2444 0.0175 0.0175
vt 0.2681 0.0631 0.0631
vt 0.2148 0.1904 0.1904
vt 0.2286 0.2683 0.2683
vt 0.3015 0.2797 0.2797
vt 0.3130 0.2745 0.2745
vt 0.3580 0.2411 0.2411
vt 0.3474 0.2344 0.2344
vt 0.3318 0.2509 0.2509
vt 0.3122 0.2623 0.2623
vt 0.3003 0.2665 0.2665
vt 0.2937 0.2503 0.2503
vt 0.3028 0.2501 0.2501
vt 0.3107 0.1975 0.1975
vt 0.3212 0.2075 0.2075
vt 0.3332 0.2400 0.2400
vt 0.3309 0.2150 0.2150
vt 0.3474 0.1821 0.1821
vt 0.3383 0.1667 0.1667
vt 0.3119 0.0665 0.0665
vt 0.3810 0.1368 0.1368
vt 0.3878 0.1566 0.1566
vt 0.4081 0.0985 0.0985
vt 0.4317 0.1285 0.1285
vt 0.3577 0.1872 0.1872
vt 0.4154 0.0237 0.0237
vt 0.3043 0.0131 0.0131
vt 0.0749 0.3607 0.3607
vt 0.0743 0.3729 0.3729
vt 0.0177 0.3729 0.3729
vt 0.0171 0.3607 0.3607
vt 0.0177 0.6633 0.6633
vt 0.0064 0.6625 0.6625
vt 0.0064 0.3737 0.3737
vt 0.0743 0.6633 0.6633
vt 0.0853 0.6619 0.6619
vt 0.0853 0.3717 0.3717
vt 0.1427 0.6612 0.6612
vt 0.1427 0.3697 0.3697
vt 0.0171 0.6755 0.6755
vt 0.0749 0.6755 0.6755
vt 0.0206 0.2996 0.2996
vt 0.0206 0.1789 0.1789
vt 0.0387 0.1789 0.1789
vt 0.0387 0.2996 0.2996
vt 0.0568 0.1789 0.1789
vt 0.0568 0.2996 0.2996
vt 0.0750 0.1789 0.1789
vt 0.0750 0.2996 0.2996
vt 0.0931 0.1789 0.1789
vt 0.0931 0.2996 0.2996
vt 0.1236 0.9813 0.9813
vt 0.1236 0.7098 0.7098
vt 0.1362 0.7093 0.7093
vt 0.1362 0.9818 0.9818
vt 0.1239 0.9941 0.9941
vt 0.0713 0.9941 0.9941
vt 0.0715 0.9813 0.9813
vt 0.0715 0.7098 0.7098
vt 0.0713 0.6971 0.6971
vt 0.1239 0.6971 0.6971
vt 0.0584 0.9814 0.9814
vt 0.0584 0.7098 0.7098
vt 0.0064 0.9809 0.9809
vt 0.0064 0.7102 0.7102
vt 0.7905 0.2287 0.2287
vt 0.8271 0.2264 0.2264
vt 0.8194 0.3022 0.3022
vt 0.8282 0.4639 0.4639
vt 0.9213 0.4781 0.4781
vt 0.9878 0.3535 0.3535
vt 0.0240 0.1586 0.1586
vt 0.0240 0.0419 0.0419
vt 0.0422 0.0419 0.0419
vt 0.0422 0.1586 0.1586
vt 0.0603 0.0419 0.0419
vt 0.0603 0.1586 0.1586
vt 0.0784 0.0419 0.0419
vt 0.0784 0.1586 0.1586
vt 0.0965 0.0419 0.0419
vt 0.0965 0.1586 0.1586
# 194 texture coords

g fossil_fish
usemtl fossil_fish_shader
s 1
f 1/1/1 2/2/2 3/3/3 
s 2
f 4/4/4 5/5/5 6/6/6 
s 3
f 7/7/7 5/5/5 4/4/4 
s 4
f 7/7/7 4/4/8 8/8/9 
s 5
f 8/8/9 9/9/10 7/7/7 
s 6
f 10/10/11 9/9/10 8/8/9 
s 7
f 8/8/9 11/11/12 10/10/11 
s 8
f 3/3/3 10/10/11 11/11/13 
s 9
f 11/11/12 12/12/14 3/3/3 
s 10
f 3/3/3 12/12/14 1/1/1 
s 11
f 13/13/15 1/1/1 12/12/14 
s 12
f 14/14/16 15/15/17 12/12/14 
s 13
f 12/12/14 11/11/12 14/14/16 
s 14
f 16/16/18 14/14/16 11/11/12 
s 15
f 11/11/12 8/8/9 16/16/18 
s 16
f 17/17/19 16/16/20 8/8/20 
s 17
f 8/8/9 4/4/4 17/17/19 
s 18
f 14/14/16 16/16/18 18/18/21 
s 19
f 19/19/22 18/18/21 16/16/18 
s 20
f 16/16/18 17/17/19 19/19/22 
s 21
f 20/20/23 21/21/24 15/15/17 
s 22
f 15/15/17 14/14/16 20/20/23 
s 23
f 20/20/23 14/14/16 22/22/25 
s 24
f 14/14/16 23/23/26 22/22/25 
s 25
f 18/18/21 23/23/26 14/14/16 
s 26
f 23/23/26 18/18/21 24/24/27 
s 27
f 24/24/27 18/18/21 19/19/22 
s 28
f 19/19/22 25/25/28 24/24/27 
s 29
f 19/19/22 26/26/29 25/25/28 
s 30
f 26/26/29 19/19/22 17/17/19 
s 31
f 17/17/19 6/6/6 26/26/29 
s 32
f 6/6/6 17/17/30 4/4/30 
s 33
f 12/12/14 15/15/17 13/13/15 
s 34
f 27/27/31 13/13/15 15/15/17 
s 35
f 15/15/17 21/21/24 27/27/31 
s 36
f 28/28/32 27/27/31 21/21/24 
s 37
f 29/29/33 28/28/32 21/21/24 
s 38
f 30/30/34 29/29/33 21/21/24 
s 39
f 20/20/23 30/30/34 21/21/24 
s 40
f 31/31/35 30/30/34 20/20/23 
s 41
f 20/20/23 22/22/25 31/31/35 
s 42
f 31/31/35 22/22/25 23/23/26 
s 43
f 23/23/26 32/32/36 31/31/35 
s 44
f 32/32/36 23/23/26 33/33/37 
s 45
f 23/23/26 24/24/27 33/33/37 
s 46
f 34/34/38 35/35/39 36/36/40 
s 47
f 36/36/40 37/37/41 34/34/38 
s 48
f 34/34/38 38/38/42 39/39/43 
s 49
f 40/40/44 41/41/45 42/42/46 
s 50
f 43/43/47 41/41/45 40/40/44 
s 51
f 43/43/47 40/40/44 39/39/43 
s 52
f 43/43/47 39/39/43 44/44/48 
s 53
f 39/39/43 38/38/42 44/44/48 
s 54
f 38/38/42 45/45/49 44/44/48 
s 55
f 34/34/38 45/45/49 38/38/42 
s 56
f 46/46/50 45/45/49 34/34/38 
s 57
f 34/34/38 37/37/41 46/46/50 
s 58
f 46/46/50 37/37/41 47/47/51 
s 59
f 48/48/52 46/46/50 47/47/51 
s 60
f 41/41/45 49/49/53 50/50/54 
s 61
f 41/41/45 43/43/47 49/49/53 
s 62
f 51/51/55 49/49/53 43/43/47 
s 63
f 52/52/56 51/51/55 43/43/47 
s 64
f 52/52/57 43/43/57 44/44/57 
s 65
f 51/51/55 53/53/58 50/50/59 
s 66
f 50/50/59 49/49/53 51/51/55 
s 67
f 51/51/55 52/52/56 6/54/6 
s 68
f 6/54/6 52/52/56 54/55/60 
s 69
f 54/55/60 52/52/56 44/44/48 
s 70
f 55/56/61 54/55/60 44/44/48 
s 71
f 55/56/61 44/44/48 45/45/49 
s 72
f 55/56/61 45/45/49 46/46/50 
s 73
f 56/57/62 55/56/61 46/46/50 
s 74
f 48/48/52 56/57/62 46/46/50 
s 75
f 56/57/62 48/48/52 33/58/37 
s 76
f 32/59/36 33/58/37 48/48/52 
s 77
f 33/58/37 24/60/27 56/57/62 
s 78
f 55/56/61 56/57/62 24/60/27 
s 79
f 24/60/27 25/61/28 55/56/61 
s 80
f 54/55/60 55/56/61 25/61/28 
s 81
f 25/61/28 26/62/29 54/55/60 
s 82
f 54/55/60 26/62/29 6/54/6 
s 83
f 57/63/63 31/64/35 32/59/36 
s 84
f 48/48/52 58/65/64 32/59/36 
s 85
f 32/59/36 58/65/64 57/63/63 
s 86
f 57/63/63 58/65/64 59/66/65 
s 87
f 59/66/65 58/65/64 48/48/52 
s 88
f 48/48/52 60/67/66 59/66/65 
s 89
f 48/48/52 47/47/51 60/67/66 
s 90
f 60/67/66 47/47/51 61/68/67 
s 91
f 61/68/67 62/69/68 60/67/66 
s 92
f 62/69/68 61/68/67 63/70/69 
s 93
f 63/70/69 64/71/70 62/69/68 
s 94
f 64/71/70 63/70/69 65/72/71 
s 95
f 65/72/71 66/73/72 64/71/70 
s 96
f 67/74/73 64/71/70 66/73/72 
s 97
f 64/71/70 67/74/73 68/75/74 
s 98
f 68/75/74 62/69/68 64/71/70 
s 99
f 62/69/68 68/75/74 59/66/65 
s 100
f 59/66/65 60/67/66 62/69/68 
s 101
f 69/76/75 65/72/71 63/70/69 
s 102
f 70/77/76 69/76/75 42/42/46 
s 103
f 69/76/75 70/77/76 71/78/77 
s 104
f 71/78/77 65/72/71 69/76/75 
s 105
f 72/79/78 65/72/71 71/78/77 
s 106
f 65/72/71 72/79/78 66/73/72 
s 107
f 73/80/79 66/73/72 72/79/78 
s 108
f 66/73/72 73/80/79 67/74/73 
s 109
f 74/81/80 67/74/73 73/80/79 
s 110
f 68/75/74 67/74/73 74/81/80 
s 111
f 74/81/80 75/82/81 68/75/74 
s 112
f 73/80/79 76/83/82 74/81/80 
s 113
f 75/82/81 74/81/80 77/84/83 
s 114
f 78/85/84 77/84/83 74/81/80 
s 115
f 74/81/80 76/83/82 78/85/84 
s 116
f 78/85/84 76/83/82 79/86/85 
s 117
f 79/86/85 76/83/82 73/80/79 
s 118
f 73/80/79 80/87/86 79/86/85 
s 119
f 72/79/78 80/87/86 73/80/79 
s 120
f 77/84/83 78/85/84 81/88/87 
s 121
f 79/86/85 80/87/86 82/89/88 
s 122
f 83/90/89 84/91/90 85/92/91 
s 123
f 84/91/90 83/90/89 81/88/87 
s 124
f 81/88/87 86/93/92 84/91/90 
s 125
f 86/93/92 81/88/87 78/85/84 
s 126
f 78/85/84 87/94/93 86/93/92 
s 127
f 79/86/85 87/94/93 78/85/84 
s 128
f 87/94/94 79/86/94 88/95/95 
s 129
f 82/89/88 88/95/95 79/86/85 
s 130
f 89/96/96 88/95/95 82/89/88 
s 131
f 82/89/88 90/97/97 89/96/96 
s 132
f 85/92/98 84/91/90 86/93/92 
s 133
f 91/98/99 90/97/97 82/89/88 
s 134
f 92/99/100 93/100/101 89/96/96 
s 135
f 88/95/95 89/96/96 93/100/101 
s 136
f 93/100/101 94/101/102 88/95/95 
s 137
f 88/95/95 94/101/102 87/94/93 
s 138
f 86/93/92 87/94/93 94/101/102 
s 139
f 94/101/102 95/102/103 86/93/92 
s 140
f 95/102/103 94/101/102 93/100/101 
s 141
f 93/100/101 96/103/104 95/102/103 
s 142
f 97/104/105 96/103/104 93/100/101 
s 143
f 93/100/101 92/99/100 97/104/105 
s 144
f 86/93/92 95/102/103 85/92/91 
s 145
f 85/92/91 95/102/103 96/103/104 
s 146
f 96/103/104 98/105/106 85/92/91 
s 147
f 99/106/107 98/105/106 96/103/104 
s 148
f 96/103/104 97/104/105 99/106/107 
s 149
f 99/106/107 97/104/105 2/107/2 
s 150
f 3/108/3 2/107/2 97/104/105 
s 151
f 97/104/105 92/99/100 3/108/3 
s 152
f 3/108/3 92/99/100 100/109/108 
s 153
f 100/109/108 92/99/100 89/96/96 
s 154
f 100/109/108 10/110/11 3/108/3 
s 155
f 2/107/2 1/111/1 99/106/107 
s 156
f 99/106/107 1/111/1 13/112/15 
s 157
f 27/113/31 28/114/32 101/115/109 
s 158
f 101/115/109 102/116/110 27/113/31 
s 159
f 13/112/15 27/113/31 102/116/110 
s 160
f 102/116/110 103/117/111 13/112/15 
s 161
f 13/112/15 103/117/111 99/106/107 
s 162
f 99/106/107 103/117/111 104/118/112 
s 163
f 99/106/107 104/118/112 98/105/106 
s 164
f 98/105/106 104/118/112 105/119/113 
s 165
f 105/119/113 85/92/91 98/105/106 
s 166
f 85/92/91 105/119/113 83/90/89 
s 167
f 77/84/83 106/120/114 107/121/115 
s 168
f 81/88/87 106/120/114 77/84/83 
s 169
f 108/122/116 106/120/114 81/88/87 
s 170
f 81/88/87 83/90/89 108/122/116 
s 171
f 109/123/117 108/122/116 83/90/89 
s 172
f 83/90/89 105/119/113 109/123/117 
s 173
f 110/124/118 109/123/117 105/119/113 
s 174
f 105/119/113 104/118/112 110/124/118 
s 175
f 103/117/111 110/124/118 104/118/112 
s 176
f 111/125/119 110/124/118 103/117/111 
s 177
f 108/122/116 109/123/117 112/126/120 
s 178
f 111/125/119 112/126/120 109/123/117 
s 179
f 109/123/117 110/124/118 111/125/119 
s 180
f 103/117/111 102/116/110 111/125/119 
s 181
f 102/116/110 113/127/121 111/125/119 
s 182
f 111/125/119 113/127/121 114/128/122 
s 183
f 114/128/122 112/126/120 111/125/119 
s 184
f 115/129/123 112/126/120 114/128/122 
s 185
f 112/126/120 115/129/123 108/122/116 
s 186
f 106/120/114 108/122/116 115/129/123 
s 187
f 115/129/123 107/121/115 106/120/114 
s 188
f 107/121/115 115/129/123 116/130/124 
s 189
f 114/128/122 116/130/124 115/129/123 
s 190
f 116/130/124 114/128/122 117/131/125 
s 191
f 117/131/125 114/128/122 113/127/121 
s 192
f 113/127/121 118/132/126 117/131/125 
s 193
f 118/132/126 113/127/121 102/116/110 
s 194
f 102/116/110 101/115/109 118/132/126 
s 195
f 118/132/126 101/115/109 119/133/127 
s 196
f 119/133/127 120/134/128 118/132/126 
s 197
f 118/132/126 120/134/128 121/135/129 
s 198
f 121/135/129 117/131/125 118/132/126 
s 199
f 120/134/128 119/133/127 122/136/130 
s 200
f 122/136/130 123/137/131 120/134/128 
s 201
f 120/134/128 123/137/131 75/82/81 
s 202
f 75/82/81 121/135/129 120/134/128 
s 203
f 77/84/83 121/135/129 75/82/81 
s 204
f 117/131/125 121/135/129 77/84/83 
s 205
f 77/84/83 124/138/132 117/131/125 
s 206
f 117/131/125 124/138/132 116/130/124 
s 207
f 116/130/124 124/138/132 107/121/115 
s 208
f 107/121/115 124/138/132 77/84/83 
s 209
f 59/66/65 68/75/74 75/82/81 
s 210
f 75/82/81 123/137/131 59/66/65 
s 211
f 57/63/63 59/66/65 123/137/131 
s 212
f 122/136/130 57/63/63 123/137/131 
s 213
f 31/64/35 57/63/63 122/136/130 
s 214
f 122/136/130 30/139/34 31/64/35 
s 215
f 30/139/34 122/136/130 119/133/127 
s 216
f 119/133/127 29/140/33 30/139/34 
s 217
f 29/140/33 119/133/127 101/115/109 
s 218
f 101/115/109 28/114/32 29/140/33 
s 219
f 125/141/133 126/142/134 127/143/135 
s 220
f 127/143/135 128/144/136 125/141/133 
s 221
f 129/145/137 130/146/138 128/147/136 
s 222
f 128/147/136 127/143/135 129/145/137 
s 223
f 129/145/137 127/143/135 126/142/134 
s 224
f 126/142/134 131/148/139 129/145/137 
s 225
f 132/149/140 131/148/139 126/142/134 
s 226
f 126/142/134 125/150/133 132/149/140 
s 227
f 130/151/138 132/149/140 125/150/133 
s 228
f 125/150/133 128/152/136 130/151/138 
s 229
f 130/153/138 129/145/137 131/148/139 
s 230
f 131/148/139 132/154/140 130/153/138 
s 231
f 133/155/141 134/156/141 135/157/142 
s 232
f 135/157/142 136/158/142 133/155/141 
s 233
f 136/158/142 135/157/142 137/159/143 
s 234
f 137/159/143 138/160/143 136/158/142 
s 235
f 138/160/143 137/159/143 139/161/144 
s 236
f 139/161/144 140/162/144 138/160/143 
s 237
f 140/162/144 139/161/144 134/163/141 
s 238
f 134/163/141 133/164/141 140/162/144 
s 239
f 141/165/145 142/166/146 143/167/147 
s 240
f 143/167/147 144/168/148 141/165/145 
s 241
f 144/169/148 145/170/149 146/171/150 
s 242
f 146/171/150 141/165/145 144/169/148 
s 243
f 142/166/146 141/165/145 146/171/150 
s 244
f 146/171/150 147/172/151 142/166/146 
s 245
f 142/166/146 147/172/151 148/173/152 
s 246
f 148/173/152 143/174/147 142/166/146 
s 247
f 147/172/151 146/171/150 145/175/149 
s 248
f 145/175/149 148/176/152 147/172/151 
s 249
f 148/176/152 145/175/149 144/177/148 
s 250
f 144/177/148 143/178/147 148/176/152 
s 251
f 149/179/153 63/70/69 61/68/67 
s 252
f 63/70/69 149/179/153 69/76/75 
s 253
f 69/76/75 149/179/153 150/180/154 
s 254
f 37/37/41 36/36/40 47/47/51 
s 255
f 61/68/67 47/47/51 36/36/40 
s 256
f 36/36/155 35/35/156 61/68/155 
s 257
f 61/68/67 35/35/156 149/179/153 
s 258
f 149/179/153 35/35/39 34/34/38 
s 259
f 34/34/38 150/180/154 149/179/153 
s 260
f 150/180/154 34/34/38 39/39/43 
s 261
f 40/40/44 150/180/154 39/39/43 
s 262
f 40/40/44 42/42/46 150/180/154 
s 263
f 150/180/154 42/42/46 69/76/75 
s 264
f 42/42/46 151/181/157 70/77/158 
s 265
f 80/87/86 72/79/78 82/89/88 
s 266
f 82/89/88 72/79/78 91/98/159 
s 267
f 71/78/77 91/98/99 72/79/78 
s 268
f 91/98/99 71/78/77 152/182/160 
s 269
f 152/182/160 71/78/77 70/77/76 
s 270
f 53/53/161 152/182/160 70/77/76 
s 271
f 53/53/58 70/77/76 151/181/157 
s 272
f 53/53/58 151/181/157 50/50/54 
s 273
f 50/50/54 151/181/157 42/42/46 
s 274
f 42/42/46 41/41/45 50/50/54 
s 275
f 100/109/108 89/96/96 90/97/97 
s 276
f 100/109/108 90/97/97 91/98/99 
s 277
f 152/182/160 100/109/108 91/98/99 
s 278
f 10/110/11 100/109/108 152/182/160 
s 279
f 152/182/160 9/9/10 10/110/11 
s 280
f 7/183/7 9/9/10 152/182/160 
s 281
f 152/182/160 53/53/58 7/183/7 
s 282
f 5/184/5 7/183/7 53/53/58 
s 283
f 53/53/58 51/51/55 5/184/5 
s 284
f 6/54/6 5/184/5 51/51/55 
s 285
f 153/185/141 154/186/141 155/187/142 
s 286
f 155/187/142 156/188/142 153/185/141 
s 287
f 156/188/142 155/187/142 157/189/162 
s 288
f 157/189/162 158/190/162 156/188/142 
s 289
f 158/190/162 157/189/162 159/191/144 
s 290
f 159/191/144 160/192/144 158/190/162 
s 291
f 160/192/144 159/191/144 154/193/141 
s 292
f 154/193/141 153/194/141 160/192/144 
# 292 faces

